<mxfile host="app.diagrams.net" agent="Mozilla/5.0 (Macintosh; Intel Mac OS X 10_15_7) AppleWebKit/537.36 (KHTML, like Gecko) Chrome/129.0.0.0 Safari/537.36" version="24.7.17">
  <diagram id="C5RBs43oDa-KdzZeNtuy" name="Page-1">
    <mxGraphModel dx="2074" dy="1121" grid="1" gridSize="10" guides="1" tooltips="1" connect="1" arrows="1" fold="1" page="1" pageScale="1" pageWidth="827" pageHeight="1169" math="0" shadow="0">
      <root>
        <mxCell id="WIyWlLk6GJQsqaUBKTNV-0" />
        <mxCell id="WIyWlLk6GJQsqaUBKTNV-1" parent="WIyWlLk6GJQsqaUBKTNV-0" />
        <mxCell id="WIyWlLk6GJQsqaUBKTNV-2" value="" style="rounded=0;html=1;jettySize=auto;orthogonalLoop=1;fontSize=11;endArrow=block;endFill=0;endSize=8;strokeWidth=1;shadow=0;labelBackgroundColor=none;edgeStyle=orthogonalEdgeStyle;" parent="WIyWlLk6GJQsqaUBKTNV-1" source="WIyWlLk6GJQsqaUBKTNV-3" target="WIyWlLk6GJQsqaUBKTNV-6" edge="1">
          <mxGeometry relative="1" as="geometry" />
        </mxCell>
        <mxCell id="WIyWlLk6GJQsqaUBKTNV-3" value="cpc减少逻辑(方案一)" style="rounded=1;whiteSpace=wrap;html=1;fontSize=12;glass=0;strokeWidth=1;shadow=0;fillColor=#fff2cc;strokeColor=#d6b656;" parent="WIyWlLk6GJQsqaUBKTNV-1" vertex="1">
          <mxGeometry x="160" y="80" width="120" height="40" as="geometry" />
        </mxCell>
        <mxCell id="WIyWlLk6GJQsqaUBKTNV-4" value="是" style="rounded=0;html=1;jettySize=auto;orthogonalLoop=1;fontSize=11;endArrow=block;endFill=0;endSize=8;strokeWidth=1;shadow=0;labelBackgroundColor=none;edgeStyle=orthogonalEdgeStyle;entryX=0.5;entryY=0;entryDx=0;entryDy=0;" parent="WIyWlLk6GJQsqaUBKTNV-1" source="WIyWlLk6GJQsqaUBKTNV-6" target="WIyWlLk6GJQsqaUBKTNV-11" edge="1">
          <mxGeometry y="20" relative="1" as="geometry">
            <mxPoint as="offset" />
            <mxPoint x="220" y="290" as="targetPoint" />
          </mxGeometry>
        </mxCell>
        <mxCell id="WIyWlLk6GJQsqaUBKTNV-5" value="否" style="edgeStyle=orthogonalEdgeStyle;rounded=0;html=1;jettySize=auto;orthogonalLoop=1;fontSize=11;endArrow=block;endFill=0;endSize=8;strokeWidth=1;shadow=0;labelBackgroundColor=none;" parent="WIyWlLk6GJQsqaUBKTNV-1" source="WIyWlLk6GJQsqaUBKTNV-6" target="WIyWlLk6GJQsqaUBKTNV-7" edge="1">
          <mxGeometry y="10" relative="1" as="geometry">
            <mxPoint as="offset" />
          </mxGeometry>
        </mxCell>
        <mxCell id="WIyWlLk6GJQsqaUBKTNV-6" value="少于或等于40元" style="rhombus;whiteSpace=wrap;html=1;shadow=0;fontFamily=Helvetica;fontSize=12;align=center;strokeWidth=1;spacing=6;spacingTop=-4;" parent="WIyWlLk6GJQsqaUBKTNV-1" vertex="1">
          <mxGeometry x="170" y="170" width="100" height="80" as="geometry" />
        </mxCell>
        <mxCell id="blLfomkqm_ZxWUu3OO_--1" style="edgeStyle=orthogonalEdgeStyle;rounded=0;orthogonalLoop=1;jettySize=auto;html=1;entryX=0;entryY=0.5;entryDx=0;entryDy=0;" edge="1" parent="WIyWlLk6GJQsqaUBKTNV-1" source="WIyWlLk6GJQsqaUBKTNV-7" target="blLfomkqm_ZxWUu3OO_--0">
          <mxGeometry relative="1" as="geometry" />
        </mxCell>
        <mxCell id="WIyWlLk6GJQsqaUBKTNV-7" value="cpc - 减少指定值" style="rounded=1;whiteSpace=wrap;html=1;fontSize=12;glass=0;strokeWidth=1;shadow=0;" parent="WIyWlLk6GJQsqaUBKTNV-1" vertex="1">
          <mxGeometry x="320" y="190" width="120" height="40" as="geometry" />
        </mxCell>
        <mxCell id="WIyWlLk6GJQsqaUBKTNV-11" value="结束" style="rounded=1;whiteSpace=wrap;html=1;fontSize=12;glass=0;strokeWidth=1;shadow=0;fillColor=#fff2cc;strokeColor=#d6b656;" parent="WIyWlLk6GJQsqaUBKTNV-1" vertex="1">
          <mxGeometry x="160" y="360" width="120" height="40" as="geometry" />
        </mxCell>
        <mxCell id="blLfomkqm_ZxWUu3OO_--2" style="edgeStyle=orthogonalEdgeStyle;rounded=0;orthogonalLoop=1;jettySize=auto;html=1;entryX=0.5;entryY=0;entryDx=0;entryDy=0;" edge="1" parent="WIyWlLk6GJQsqaUBKTNV-1" source="blLfomkqm_ZxWUu3OO_--0" target="blLfomkqm_ZxWUu3OO_--3">
          <mxGeometry relative="1" as="geometry">
            <mxPoint x="540" y="320" as="targetPoint" />
          </mxGeometry>
        </mxCell>
        <mxCell id="blLfomkqm_ZxWUu3OO_--4" style="edgeStyle=orthogonalEdgeStyle;rounded=0;orthogonalLoop=1;jettySize=auto;html=1;entryX=1;entryY=0.5;entryDx=0;entryDy=0;" edge="1" parent="WIyWlLk6GJQsqaUBKTNV-1" source="blLfomkqm_ZxWUu3OO_--0" target="WIyWlLk6GJQsqaUBKTNV-11">
          <mxGeometry relative="1" as="geometry">
            <Array as="points">
              <mxPoint x="620" y="210" />
              <mxPoint x="620" y="380" />
            </Array>
          </mxGeometry>
        </mxCell>
        <mxCell id="blLfomkqm_ZxWUu3OO_--0" value="少于或等于40元" style="rhombus;whiteSpace=wrap;html=1;shadow=0;fontFamily=Helvetica;fontSize=12;align=center;strokeWidth=1;spacing=6;spacingTop=-4;" vertex="1" parent="WIyWlLk6GJQsqaUBKTNV-1">
          <mxGeometry x="490" y="170" width="100" height="80" as="geometry" />
        </mxCell>
        <mxCell id="blLfomkqm_ZxWUu3OO_--5" style="edgeStyle=orthogonalEdgeStyle;rounded=0;orthogonalLoop=1;jettySize=auto;html=1;entryX=1;entryY=0.5;entryDx=0;entryDy=0;" edge="1" parent="WIyWlLk6GJQsqaUBKTNV-1" source="blLfomkqm_ZxWUu3OO_--3" target="WIyWlLk6GJQsqaUBKTNV-11">
          <mxGeometry relative="1" as="geometry">
            <Array as="points">
              <mxPoint x="540" y="380" />
            </Array>
          </mxGeometry>
        </mxCell>
        <mxCell id="blLfomkqm_ZxWUu3OO_--3" value="修改为40元" style="rounded=1;whiteSpace=wrap;html=1;fontSize=12;glass=0;strokeWidth=1;shadow=0;" vertex="1" parent="WIyWlLk6GJQsqaUBKTNV-1">
          <mxGeometry x="480" y="290" width="120" height="40" as="geometry" />
        </mxCell>
        <mxCell id="blLfomkqm_ZxWUu3OO_--6" value="" style="rounded=0;html=1;jettySize=auto;orthogonalLoop=1;fontSize=11;endArrow=block;endFill=0;endSize=8;strokeWidth=1;shadow=0;labelBackgroundColor=none;edgeStyle=orthogonalEdgeStyle;" edge="1" parent="WIyWlLk6GJQsqaUBKTNV-1" source="blLfomkqm_ZxWUu3OO_--7" target="blLfomkqm_ZxWUu3OO_--10">
          <mxGeometry relative="1" as="geometry" />
        </mxCell>
        <mxCell id="blLfomkqm_ZxWUu3OO_--7" value="cpc减少逻辑(方案二)" style="rounded=1;whiteSpace=wrap;html=1;fontSize=12;glass=0;strokeWidth=1;shadow=0;fillColor=#fff2cc;strokeColor=#d6b656;" vertex="1" parent="WIyWlLk6GJQsqaUBKTNV-1">
          <mxGeometry x="160" y="460" width="120" height="40" as="geometry" />
        </mxCell>
        <mxCell id="blLfomkqm_ZxWUu3OO_--8" value="是" style="rounded=0;html=1;jettySize=auto;orthogonalLoop=1;fontSize=11;endArrow=block;endFill=0;endSize=8;strokeWidth=1;shadow=0;labelBackgroundColor=none;edgeStyle=orthogonalEdgeStyle;entryX=0.5;entryY=0;entryDx=0;entryDy=0;" edge="1" parent="WIyWlLk6GJQsqaUBKTNV-1" source="blLfomkqm_ZxWUu3OO_--10" target="blLfomkqm_ZxWUu3OO_--13">
          <mxGeometry x="-0.0909" y="10" relative="1" as="geometry">
            <mxPoint as="offset" />
            <mxPoint x="220" y="670" as="targetPoint" />
          </mxGeometry>
        </mxCell>
        <mxCell id="blLfomkqm_ZxWUu3OO_--9" value="否" style="edgeStyle=orthogonalEdgeStyle;rounded=0;html=1;jettySize=auto;orthogonalLoop=1;fontSize=11;endArrow=block;endFill=0;endSize=8;strokeWidth=1;shadow=0;labelBackgroundColor=none;entryX=0;entryY=0.5;entryDx=0;entryDy=0;" edge="1" parent="WIyWlLk6GJQsqaUBKTNV-1" source="blLfomkqm_ZxWUu3OO_--10" target="blLfomkqm_ZxWUu3OO_--16">
          <mxGeometry y="10" relative="1" as="geometry">
            <mxPoint as="offset" />
            <mxPoint x="320" y="590" as="targetPoint" />
          </mxGeometry>
        </mxCell>
        <mxCell id="blLfomkqm_ZxWUu3OO_--10" value="少于或等于40元" style="rhombus;whiteSpace=wrap;html=1;shadow=0;fontFamily=Helvetica;fontSize=12;align=center;strokeWidth=1;spacing=6;spacingTop=-4;" vertex="1" parent="WIyWlLk6GJQsqaUBKTNV-1">
          <mxGeometry x="170" y="550" width="100" height="80" as="geometry" />
        </mxCell>
        <mxCell id="blLfomkqm_ZxWUu3OO_--13" value="结束" style="rounded=1;whiteSpace=wrap;html=1;fontSize=12;glass=0;strokeWidth=1;shadow=0;fillColor=#fff2cc;strokeColor=#d6b656;" vertex="1" parent="WIyWlLk6GJQsqaUBKTNV-1">
          <mxGeometry x="160" y="740" width="120" height="40" as="geometry" />
        </mxCell>
        <mxCell id="blLfomkqm_ZxWUu3OO_--20" style="edgeStyle=orthogonalEdgeStyle;rounded=0;orthogonalLoop=1;jettySize=auto;html=1;entryX=1;entryY=0.5;entryDx=0;entryDy=0;" edge="1" parent="WIyWlLk6GJQsqaUBKTNV-1" source="blLfomkqm_ZxWUu3OO_--16" target="blLfomkqm_ZxWUu3OO_--13">
          <mxGeometry relative="1" as="geometry">
            <Array as="points">
              <mxPoint x="370" y="760" />
            </Array>
          </mxGeometry>
        </mxCell>
        <mxCell id="blLfomkqm_ZxWUu3OO_--21" value="是" style="edgeLabel;html=1;align=center;verticalAlign=middle;resizable=0;points=[];" vertex="1" connectable="0" parent="blLfomkqm_ZxWUu3OO_--20">
          <mxGeometry x="-0.4909" relative="1" as="geometry">
            <mxPoint x="-10" as="offset" />
          </mxGeometry>
        </mxCell>
        <mxCell id="blLfomkqm_ZxWUu3OO_--22" style="edgeStyle=orthogonalEdgeStyle;rounded=0;orthogonalLoop=1;jettySize=auto;html=1;entryX=0;entryY=0.5;entryDx=0;entryDy=0;" edge="1" parent="WIyWlLk6GJQsqaUBKTNV-1" source="blLfomkqm_ZxWUu3OO_--16" target="blLfomkqm_ZxWUu3OO_--18">
          <mxGeometry relative="1" as="geometry" />
        </mxCell>
        <mxCell id="blLfomkqm_ZxWUu3OO_--16" value="少于或等于推荐cpc值" style="rhombus;whiteSpace=wrap;html=1;shadow=0;fontFamily=Helvetica;fontSize=12;align=center;strokeWidth=1;spacing=6;spacingTop=-4;" vertex="1" parent="WIyWlLk6GJQsqaUBKTNV-1">
          <mxGeometry x="320" y="550" width="100" height="80" as="geometry" />
        </mxCell>
        <mxCell id="blLfomkqm_ZxWUu3OO_--24" style="edgeStyle=orthogonalEdgeStyle;rounded=0;orthogonalLoop=1;jettySize=auto;html=1;entryX=0;entryY=0.5;entryDx=0;entryDy=0;" edge="1" parent="WIyWlLk6GJQsqaUBKTNV-1" source="blLfomkqm_ZxWUu3OO_--18" target="blLfomkqm_ZxWUu3OO_--23">
          <mxGeometry relative="1" as="geometry" />
        </mxCell>
        <mxCell id="blLfomkqm_ZxWUu3OO_--18" value="cpc - 减少指定值" style="rounded=1;whiteSpace=wrap;html=1;fontSize=12;glass=0;strokeWidth=1;shadow=0;" vertex="1" parent="WIyWlLk6GJQsqaUBKTNV-1">
          <mxGeometry x="460" y="570" width="120" height="40" as="geometry" />
        </mxCell>
        <mxCell id="blLfomkqm_ZxWUu3OO_--26" style="edgeStyle=orthogonalEdgeStyle;rounded=0;orthogonalLoop=1;jettySize=auto;html=1;entryX=0.5;entryY=0;entryDx=0;entryDy=0;" edge="1" parent="WIyWlLk6GJQsqaUBKTNV-1" source="blLfomkqm_ZxWUu3OO_--23" target="blLfomkqm_ZxWUu3OO_--25">
          <mxGeometry relative="1" as="geometry" />
        </mxCell>
        <mxCell id="blLfomkqm_ZxWUu3OO_--30" value="是" style="edgeLabel;html=1;align=center;verticalAlign=middle;resizable=0;points=[];" vertex="1" connectable="0" parent="blLfomkqm_ZxWUu3OO_--26">
          <mxGeometry x="-0.36" relative="1" as="geometry">
            <mxPoint x="10" y="4" as="offset" />
          </mxGeometry>
        </mxCell>
        <mxCell id="blLfomkqm_ZxWUu3OO_--28" style="edgeStyle=orthogonalEdgeStyle;rounded=0;orthogonalLoop=1;jettySize=auto;html=1;entryX=1;entryY=0.5;entryDx=0;entryDy=0;" edge="1" parent="WIyWlLk6GJQsqaUBKTNV-1" source="blLfomkqm_ZxWUu3OO_--23" target="blLfomkqm_ZxWUu3OO_--13">
          <mxGeometry relative="1" as="geometry">
            <Array as="points">
              <mxPoint x="780" y="590" />
              <mxPoint x="780" y="760" />
            </Array>
          </mxGeometry>
        </mxCell>
        <mxCell id="blLfomkqm_ZxWUu3OO_--29" value="否" style="edgeLabel;html=1;align=center;verticalAlign=middle;resizable=0;points=[];" vertex="1" connectable="0" parent="blLfomkqm_ZxWUu3OO_--28">
          <mxGeometry x="-0.9096" relative="1" as="geometry">
            <mxPoint y="-10" as="offset" />
          </mxGeometry>
        </mxCell>
        <mxCell id="blLfomkqm_ZxWUu3OO_--23" value="少于或等于推荐cpc值" style="rhombus;whiteSpace=wrap;html=1;shadow=0;fontFamily=Helvetica;fontSize=12;align=center;strokeWidth=1;spacing=6;spacingTop=-4;" vertex="1" parent="WIyWlLk6GJQsqaUBKTNV-1">
          <mxGeometry x="620" y="550" width="100" height="80" as="geometry" />
        </mxCell>
        <mxCell id="blLfomkqm_ZxWUu3OO_--27" style="edgeStyle=orthogonalEdgeStyle;rounded=0;orthogonalLoop=1;jettySize=auto;html=1;entryX=1;entryY=0.5;entryDx=0;entryDy=0;" edge="1" parent="WIyWlLk6GJQsqaUBKTNV-1" source="blLfomkqm_ZxWUu3OO_--25" target="blLfomkqm_ZxWUu3OO_--13">
          <mxGeometry relative="1" as="geometry">
            <Array as="points">
              <mxPoint x="670" y="760" />
            </Array>
          </mxGeometry>
        </mxCell>
        <mxCell id="blLfomkqm_ZxWUu3OO_--25" value="cpc修改为推荐cpc值" style="rounded=1;whiteSpace=wrap;html=1;fontSize=12;glass=0;strokeWidth=1;shadow=0;" vertex="1" parent="WIyWlLk6GJQsqaUBKTNV-1">
          <mxGeometry x="610" y="680" width="120" height="40" as="geometry" />
        </mxCell>
      </root>
    </mxGraphModel>
  </diagram>
</mxfile>
